Coordinates
version=1
nRows=10
nColumns=34
inDegrees=yes

Units are S.I. units (second, meters, Newtons, ...)
If the header above contains a line with 'inDegrees', this indicates whether rotational values are in degrees (yes) or radians (no).

endheader
time	pelvis_tilt	pelvis_list	pelvis_rotation	pelvis_tx	pelvis_ty	pelvis_tz	hip_flexion_r	hip_adduction_r	hip_rotation_r	knee_angle_r	ankle_angle_r	subtalar_angle_r	mtp_angle_r	hip_flexion_l	hip_adduction_l	hip_rotation_l	knee_angle_l	ankle_angle_l	subtalar_angle_l	mtp_angle_l	lumbar_extension	lumbar_bending	lumbar_rotation	arm_flex_r	arm_add_r	arm_rot_r	elbow_flex_r	pro_sup_r	arm_flex_l	arm_add_l	arm_rot_l	elbow_flex_l	pro_sup_l
      0.00000000	     -0.24071050	     -2.32039955	     -0.17454847	     -0.05879805	      1.25420969	     -0.07654678	     -3.50794767	      1.26647713	     -0.37828369	      0.45470163	      9.52920723	     -3.34070804	      0.00000000	     -4.23730660	     -4.10497660	     -4.00678234	      0.57048984	     11.54223414	     -0.04205539	      0.00000000	     -6.67655269	      0.98971797	     -3.93048343	      4.47746947	     -8.49817759	     23.25811561	     26.87989944	     77.60303678	      1.28922642	     -8.26670252	     20.94675271	     29.09438691	     70.51501284
      0.01666670	     -2.03356800	     -2.96004128	     -0.51429067	     -0.05735311	      1.25523639	     -0.07739004	     -1.36806160	      1.88591094	      0.84883615	      1.61267402	     11.01311430	     -3.17040158	      0.00000000	     -2.11509983	     -4.43788098	     -3.91392432	      0.64083902	     11.26383082	     -0.04930582	      0.00000000	     -4.17180933	      1.86147591	     -3.70642138	      3.95180704	     -8.83190075	     23.18570062	     26.87658819	     77.54084115	      1.16339703	     -7.79753465	     21.80724449	     28.86794347	     70.94337067
      0.03333330	     -2.34846970	     -2.35917615	     -1.03917832	     -0.05846713	      1.25253508	     -0.07623974	     -1.18221915	      1.18897102	      1.11902082	      1.05862669	     10.94710770	     -3.00117534	      0.00000000	     -1.89389633	     -3.84524236	     -4.16829638	      0.37586139	     11.42100691	     -0.23498103	      0.00000000	     -3.90321474	      1.02334175	     -3.59051421	      4.30009933	     -8.64558233	     23.15937250	     27.06623156	     77.54848082	      1.33780943	     -8.16011534	     22.00954786	     28.73673024	     71.06285276
      0.05000000	     -2.85112679	     -1.98447580	     -1.33308421	     -0.05925402	      1.25307364	     -0.07633805	     -0.69654383	      0.74723960	      1.63571636	      0.63087165	     10.67930369	     -3.33162192	      0.00000000	     -1.53666010	     -3.45621993	     -3.99416950	      0.00000000	     11.16159737	     -0.56888853	      0.00000000	     -3.02517208	      0.49513958	     -2.17509146	      3.42667338	     -8.45498191	     21.07896188	     27.27452496	     77.92926222	      2.65741464	     -8.41963603	     27.07560683	     26.73214657	     74.37600563
      0.06666670	     -2.95007273	     -1.84728298	     -1.48639798	     -0.05978347	      1.25335998	     -0.07602480	     -0.65574949	      0.59411398	      1.68916195	      0.34363804	     10.68154001	     -3.27631462	      0.00000000	     -1.43878216	     -3.27440278	     -3.92861656	      0.00000000	     11.24366852	     -0.57901143	      0.00000000	     -3.03467605	      0.53977165	     -2.07558249	      3.60673976	     -8.30607697	     21.04873889	     27.36352611	     77.93556729	      2.69527870	     -8.33328332	     27.07026071	     26.75869518	     74.38823452
      0.08333330	     -3.07894592	     -1.60906619	     -1.56761498	     -0.05918617	      1.25640282	     -0.07542003	     -0.67029773	      0.36398968	      1.98225246	      0.00000000	     10.40819534	     -3.00631776	      0.00000000	     -1.41793615	     -2.98329344	     -3.80752066	      0.00000000	     11.30253603	     -0.64211451	      0.00000000	     -2.85169448	      0.23778498	     -1.93972204	      3.72930102	     -8.11608952	     20.89305665	     27.46156818	     77.94482595	      2.70258605	     -8.19822435	     26.99741523	     26.77789067	     74.41924664
      0.10000000	     -3.28681199	     -1.34717245	     -1.71485910	     -0.06025919	      1.25403637	     -0.07482243	     -0.40747118	      0.08598516	      2.22670847	      0.00000000	     10.16905742	     -2.88055693	      0.00000000	     -1.22873877	     -2.67366293	     -3.79010484	      0.00000000	     11.26905246	     -0.99909219	      0.00000000	     -2.63424566	     -0.17526394	     -1.51559669	      3.67310071	     -7.87540272	     20.33913858	     27.54966990	     77.95861993	      2.71635809	     -8.19225938	     26.59951044	     26.81524357	     74.49467353
      0.11666670	     -3.57119824	     -1.35170543	     -1.68156645	     -0.05938004	      1.25473589	     -0.07490755	     -0.13264176	      0.10596151	      2.56072377	      0.00000000	      9.87623276	     -3.54924306	      0.00000000	     -0.91054201	     -2.66089863	     -2.84716687	      0.00000000	     10.74603984	     -2.05047351	      0.00000000	     -2.29595182	     -0.00576579	     -0.69272999	      2.33415224	     -7.18319014	     13.52619654	     29.03585953	     78.77319361	      2.45821229	     -7.51641015	     22.28834587	     27.35953106	     76.24940247
      0.13333330	     -3.58958642	     -1.32143282	     -1.63433514	     -0.05963431	      1.25311343	     -0.07501888	     -0.15543575	      0.08776178	      2.62358005	      0.00000000	      9.88043085	     -3.51155699	      0.00000000	     -0.87269736	     -2.61840756	     -2.86841309	      0.00000000	     10.73934832	     -2.05751986	      0.00000000	     -2.24084897	      0.02244155	     -0.62716787	      2.43342280	     -7.11740707	     13.53248233	     29.08056896	     78.79069774	      2.50291948	     -7.49566974	     22.28268307	     27.39235248	     76.26585018
      0.15000000	     -3.59694776	     -1.31634387	     -1.64899464	     -0.05982191	      1.25391213	     -0.07503831	     -0.17301074	      0.08761896	      2.62587395	      0.00000000	      9.87912575	     -3.50958384	      0.00000000	     -0.85317469	     -2.61238854	     -2.86873596	      0.00000000	     10.73488604	     -2.05768467	      0.00000000	     -2.23460222	      0.02480849	     -0.62089939	      2.43999784	     -7.11159644	     13.53329900	     29.08443744	     78.79272858	      2.50749065	     -7.49220853	     22.28177800	     27.39729307	     76.26775488
